<svg width="50" height="50" viewBox="0 0 50 50" fill="none" xmlns="http://www.w3.org/2000/svg">
<path d="M43.7518 9.37549H6.25014C5.4213 9.37549 4.62641 9.70474 4.04033 10.2908C3.45425 10.8769 3.125 11.6718 3.125 12.5006V37.5018C3.125 38.3306 3.45425 39.1255 4.04033 39.7116C4.62641 40.2976 5.4213 40.6269 6.25014 40.6269H43.7518C44.5807 40.6269 45.3756 40.2976 45.9616 39.7116C46.5477 39.1255 46.877 38.3306 46.877 37.5018V12.5006C46.877 11.6718 46.5477 10.8769 45.9616 10.2908C45.3756 9.70474 44.5807 9.37549 43.7518 9.37549ZM40.3142 12.5006L25.001 23.0949L9.6878 12.5006H40.3142ZM6.25014 37.5018V13.9226L24.1103 26.2825C24.3719 26.464 24.6826 26.5612 25.001 26.5612C25.3193 26.5612 25.6301 26.464 25.8917 26.2825L43.7518 13.9226V37.5018H6.25014Z" fill="#D9D9D9"/>
</svg>
