<svg width="100" height="100" viewBox="0 0 100 100" fill="none" xmlns="http://www.w3.org/2000/svg">
<path d="M15.625 43.75C14.7962 43.75 14.0013 43.4208 13.4153 42.8347C12.8292 42.2487 12.5 41.4538 12.5 40.625V15.625C12.5 14.7962 12.8292 14.0013 13.4153 13.4153C14.0013 12.8292 14.7962 12.5 15.625 12.5H40.625C41.4538 12.5 42.2487 12.8292 42.8347 13.4153C43.4208 14.0013 43.75 14.7962 43.75 15.625V40.625C43.75 41.4538 43.4208 42.2487 42.8347 42.8347C42.2487 43.4208 41.4538 43.75 40.625 43.75H15.625ZM59.375 43.75C58.5462 43.75 57.7513 43.4208 57.1653 42.8347C56.5792 42.2487 56.25 41.4538 56.25 40.625V15.625C56.25 14.7962 56.5792 14.0013 57.1653 13.4153C57.7513 12.8292 58.5462 12.5 59.375 12.5H84.375C85.2038 12.5 85.9987 12.8292 86.5847 13.4153C87.1708 14.0013 87.5 14.7962 87.5 15.625V40.625C87.5 41.4538 87.1708 42.2487 86.5847 42.8347C85.9987 43.4208 85.2038 43.75 84.375 43.75H59.375ZM15.625 87.5C14.7962 87.5 14.0013 87.1708 13.4153 86.5847C12.8292 85.9987 12.5 85.2038 12.5 84.375V59.375C12.5 58.5462 12.8292 57.7513 13.4153 57.1653C14.0013 56.5792 14.7962 56.25 15.625 56.25H40.625C41.4538 56.25 42.2487 56.5792 42.8347 57.1653C43.4208 57.7513 43.75 58.5462 43.75 59.375V84.375C43.75 85.2038 43.4208 85.9987 42.8347 86.5847C42.2487 87.1708 41.4538 87.5 40.625 87.5H15.625ZM59.375 87.5C58.5462 87.5 57.7513 87.1708 57.1653 86.5847C56.5792 85.9987 56.25 85.2038 56.25 84.375V59.375C56.25 58.5462 56.5792 57.7513 57.1653 57.1653C57.7513 56.5792 58.5462 56.25 59.375 56.25H84.375C85.2038 56.25 85.9987 56.5792 86.5847 57.1653C87.1708 57.7513 87.5 58.5462 87.5 59.375V84.375C87.5 85.2038 87.1708 85.9987 86.5847 86.5847C85.9987 87.1708 85.2038 87.5 84.375 87.5H59.375Z" fill="#F2522F"/>
</svg>
