<svg width="72" height="72" viewBox="0 0 72 72" fill="none" xmlns="http://www.w3.org/2000/svg">
<path d="M44.4283 38.3317L46.2949 53.2768C46.3975 54.0976 46.3243 54.9308 46.0802 55.7212C45.8362 56.5116 45.4268 57.2411 44.8792 57.8612C44.3317 58.4812 43.6586 58.9778 42.9045 59.3178C42.1504 59.6578 41.3326 59.8336 40.5053 59.8334H24.557C23.7295 59.834 22.9114 59.6586 22.157 59.3187C21.4025 58.9788 20.729 58.4824 20.1811 57.8622C19.6333 57.2421 19.2236 56.5125 18.9794 55.7219C18.7351 54.9313 18.6619 54.0978 18.7645 53.2768L20.6341 38.3317C20.8985 36.2159 21.9264 34.2694 23.5247 32.858C25.1231 31.4466 27.1818 30.6674 29.3141 30.6667H35.7424C37.8757 30.6659 39.9359 31.4445 41.5354 32.8561C43.135 34.2676 44.1637 36.2149 44.4283 38.3317Z" stroke="#18341E" stroke-width="3" stroke-linecap="round" stroke-linejoin="round"/>
<path d="M32.5311 19C37.3636 19 41.2811 15.0825 41.2811 10.25C41.2811 5.41751 37.3636 1.5 32.5311 1.5C27.6986 1.5 23.7811 5.41751 23.7811 10.25C23.7811 15.0825 27.6986 19 32.5311 19Z" stroke="#18341E" stroke-width="3"/>
<path d="M9.19784 27.7499C12.4195 27.7499 15.0312 25.1382 15.0312 21.9166C15.0312 18.6949 12.4195 16.0833 9.19784 16.0833C5.97617 16.0833 3.3645 18.6949 3.3645 21.9166C3.3645 25.1382 5.97617 27.7499 9.19784 27.7499Z" stroke="#18341E" stroke-width="3"/>
<path d="M55.8645 27.7499C59.0861 27.7499 61.6978 25.1382 61.6978 21.9166C61.6978 18.6949 59.0861 16.0833 55.8645 16.0833C52.6428 16.0833 50.0311 18.6949 50.0311 21.9166C50.0311 25.1382 52.6428 27.7499 55.8645 27.7499Z" stroke="#18341E" stroke-width="3"/>
<path d="M9.1978 36.5H8.3053C6.92444 36.4998 5.58829 36.9895 4.53456 37.882C3.48084 38.7744 2.77787 40.0117 2.55072 41.3737L1.57947 47.2071C1.44009 48.0428 1.48445 48.8989 1.70946 49.7158C1.93447 50.5327 2.33474 51.2907 2.88242 51.9372C3.4301 52.5837 4.11205 53.1032 4.88082 53.4594C5.6496 53.8156 6.48675 54.0001 7.33405 54H17.9478M55.8645 36.5H56.757C58.1378 36.4998 59.474 36.9895 60.5277 37.882C61.5814 38.7744 62.2844 40.0117 62.5115 41.3737L63.4828 47.2071C63.6222 48.0428 63.5778 48.8989 63.3528 49.7158C63.1278 50.5327 62.7275 51.2907 62.1798 51.9372C61.6322 52.5837 60.9502 53.1032 60.1814 53.4594C59.4127 53.8156 58.5755 54.0001 57.7282 54H47.1145" stroke="#18341E" stroke-width="3" stroke-linecap="round" stroke-linejoin="round"/>
</svg>
