<svg width="70" height="70" viewBox="0 0 70 70" fill="none" xmlns="http://www.w3.org/2000/svg">
<path d="M16.954 30.1815C17.2502 30.1815 17.5806 30.2271 17.9452 30.3183C18.3098 30.4094 18.6744 30.5347 19.039 30.6942C19.4035 30.8537 19.7681 31.0019 20.1327 31.1386C20.4973 31.2753 20.8277 31.412 21.1239 31.5487L20.577 31.6171C20.3948 31.6399 20.2011 31.6513 19.996 31.6513C19.6086 31.6513 19.2554 31.5943 18.9364 31.4804C18.6174 31.3664 18.3212 31.2183 18.0478 31.036C17.7743 30.8537 17.5009 30.717 17.2274 30.6259C16.954 30.5347 16.7034 30.4664 16.4755 30.4208C16.2476 30.4208 16.0425 30.4664 15.8603 30.5575C15.678 30.6487 15.4957 30.7512 15.3134 30.8651C15.3134 30.774 15.2336 30.7284 15.0741 30.7284C15.2336 30.5689 15.5298 30.4436 15.9628 30.3524C16.3957 30.2613 16.7261 30.2043 16.954 30.1815ZM21.5683 31.7196C22.5025 31.7196 23.357 31.8791 24.1317 32.1981C23.8127 32.3121 23.4937 32.4032 23.1747 32.4716C22.8557 32.5399 22.5253 32.5855 22.1835 32.6083C21.7278 32.6083 21.3176 32.5627 20.953 32.4716C21.067 32.2893 21.1809 32.1754 21.2948 32.1298C21.4088 32.0842 21.4999 31.9475 21.5683 31.7196ZM35.0009 0.000876402C38.2138 0.000876402 41.3013 0.422426 44.2636 1.26552C47.2258 2.10862 50.0058 3.28213 52.6034 4.78603C55.2011 6.28994 57.5709 8.12425 59.7128 10.289C61.8547 12.4537 63.6776 14.8121 65.1815 17.3642C66.6854 19.9162 67.8703 22.6962 68.7362 25.704C69.6021 28.7118 70.0237 31.8108 70.0009 35.0009C70.0009 38.2138 69.5793 41.3013 68.7362 44.2636C67.8931 47.2258 66.7196 50.0058 65.2157 52.6034C63.7118 55.2011 61.8775 57.5709 59.7128 59.7128C57.5481 61.8547 55.1897 63.6776 52.6376 65.1815C50.0855 66.6854 47.3056 67.8703 44.2978 68.7362C41.2899 69.6021 38.191 70.0237 35.0009 70.0009C31.788 70.0009 28.7004 69.5793 25.7382 68.7362C22.7759 67.8931 19.996 66.7196 17.3983 65.2157C14.8007 63.7118 12.4309 61.8775 10.289 59.7128C8.14703 57.5481 6.32412 55.1897 4.82021 52.6376C3.31631 50.0855 2.13141 47.3056 1.26552 44.2978C0.399639 41.2899 -0.0219101 38.191 0.000876402 35.0009C0.000876402 31.788 0.422426 28.7004 1.26552 25.7382C2.10862 22.7759 3.28213 19.996 4.78603 17.3983C6.28994 14.8007 8.12425 12.4309 10.289 10.289C12.4537 8.14703 14.8121 6.32412 17.3642 4.82021C19.9162 3.31631 22.6962 2.13141 25.704 1.26552C28.7118 0.399639 31.8108 -0.0219101 35.0009 0.000876402ZM61.0458 18.9706C60.7268 18.4693 60.4078 17.9908 60.0888 17.5351C59.7698 17.0793 59.4394 16.6122 59.0976 16.1337C59.052 16.3388 58.995 16.4869 58.9267 16.578C58.8583 16.6692 58.8127 16.8742 58.7899 17.1933C58.7899 17.3983 58.8697 17.592 59.0292 17.7743C59.1887 17.9566 59.3938 18.1389 59.6444 18.3212C59.8951 18.5035 60.1457 18.6402 60.3964 18.7313C60.647 18.8225 60.8635 18.9022 61.0458 18.9706ZM58.6874 15.621C58.6874 15.8033 58.6532 15.9286 58.5849 15.997H58.7899C58.8811 15.997 58.9494 16.0084 58.995 16.0311L58.6874 15.621ZM35.0009 65.6259C37.5985 65.6259 40.1392 65.2955 42.6229 64.6347C45.1067 63.9739 47.4537 63.0396 49.664 61.8319C51.8742 60.6242 53.925 59.1431 55.8163 57.3886C57.7076 55.634 59.3596 53.6744 60.7724 51.5097C60.4761 50.8261 60.1913 50.1311 59.9179 49.4247C59.6444 48.7183 59.5077 47.9892 59.5077 47.2372C59.5077 46.4169 59.5419 45.7561 59.6103 45.2548C59.6786 44.7535 59.7584 44.3091 59.8495 43.9218C59.9407 43.5344 59.9862 43.204 59.9862 42.9306C59.9862 42.6571 59.952 42.3039 59.8837 41.871C59.8153 41.438 59.6216 40.9709 59.3026 40.4696C58.9836 39.9683 58.5621 39.2619 58.038 38.3505C58.0608 38.191 58.095 37.9745 58.1405 37.7011C58.1861 37.4276 58.2317 37.1428 58.2772 36.8466C58.3228 36.5504 58.3342 36.2769 58.3114 36.0263C58.2886 35.7756 58.2317 35.5591 58.1405 35.3769C57.5481 35.3085 56.9328 35.1832 56.2948 35.0009C55.6568 34.8186 55.0871 34.5451 54.5858 34.1806L54.7909 34.0097C54.4947 34.078 54.1985 34.1692 53.9022 34.2831C53.606 34.397 53.3212 34.5224 53.0478 34.6591C52.7743 34.7958 52.4781 34.8869 52.1591 34.9325C51.8401 34.9781 51.5325 35.0237 51.2362 35.0692L50.6894 35.0009L50.7919 34.7616C50.4729 34.8528 50.1311 34.9667 49.7665 35.1034C49.4019 35.2401 49.0487 35.3085 48.7069 35.3085C48.4791 35.3085 48.1487 35.2287 47.7157 35.0692C47.2828 34.9097 46.8498 34.716 46.4169 34.4882C45.9839 34.2603 45.5966 34.0097 45.2548 33.7362C44.913 33.4628 44.7421 33.2007 44.7421 32.9501L44.8104 32.8476C44.6965 32.7108 44.5484 32.5855 44.3661 32.4716C44.1838 32.3576 44.0129 32.2437 43.8534 32.1298C43.6939 32.0159 43.5458 31.8905 43.4091 31.7538C43.2724 31.6171 43.2154 31.4576 43.2382 31.2753L43.6142 30.9677L42.828 30.8651L42.5546 29.8397C42.6002 29.9537 42.7027 29.9992 42.8622 29.9765C43.0217 29.9537 43.147 29.9081 43.2382 29.8397L42.0077 29.1903L42.8622 27.0028C42.5432 25.8179 42.4634 24.9065 42.6229 24.2685C42.7825 23.6304 43.0901 23.1063 43.5458 22.6962C44.0015 22.286 44.5028 21.8759 45.0497 21.4657C45.5966 21.0556 46.1548 20.4973 46.7245 19.7909L46.622 19.3808L48.8778 16.6464L49.3905 16.578C50.0285 16.578 50.7463 16.5552 51.5438 16.5097C52.3414 16.4641 53.1503 16.3843 53.9706 16.2704C54.7909 16.1565 55.5998 16.0425 56.3974 15.9286C57.1949 15.8147 57.9241 15.6666 58.5849 15.4843C57.8557 14.6184 57.0923 13.7981 56.2948 13.0233C55.4973 12.2486 54.6428 11.508 53.7313 10.8017C53.4807 10.8928 53.1731 11.0181 52.8085 11.1776C52.4439 11.3371 52.0793 11.5422 51.7147 11.7929C51.3502 12.0435 51.0653 12.317 50.8603 12.6132C50.6552 12.9094 50.5298 13.217 50.4843 13.536L50.6894 14.1854C50.2792 14.8463 49.8235 15.2564 49.3222 15.4159C48.8209 15.5754 48.3082 15.6666 47.7841 15.6894C47.26 15.7121 46.7131 15.7121 46.1435 15.6894C45.5738 15.6666 45.0269 15.7691 44.5028 15.997L43.956 14.8349L44.4687 12.8524L43.8876 11.9979L49.8007 10.1522C49.55 9.51422 49.1399 9.03571 48.5702 8.7167C48.0005 8.39769 47.3739 8.23818 46.6903 8.23818V7.89638L48.6044 7.58877C46.4853 6.54059 44.2864 5.74306 42.0077 5.19619C39.7291 4.64931 37.3935 4.37588 35.0009 4.37588C33.0185 4.37588 31.0588 4.56956 29.122 4.95693C27.1851 5.3443 25.3166 5.90257 23.5165 6.63174C21.7164 7.3609 19.9732 8.27236 18.287 9.36611C16.6008 10.4599 15.0627 11.6903 13.6728 13.0575C14.2652 13.0575 14.7209 13.2056 15.0399 13.5019C15.3589 13.7981 15.6552 14.1285 15.9286 14.4931C16.202 14.8576 16.4869 15.1881 16.7831 15.4843C17.0793 15.7805 17.4781 15.94 17.9794 15.9628L18.5263 15.5526L18.4579 14.8007L19.5858 13.1942L18.6972 10.6649C18.8111 10.5966 18.982 10.4826 19.2099 10.3231C19.4377 10.1636 19.6314 10.0839 19.7909 10.0839C20.4745 10.0839 20.9986 10.1181 21.3632 10.1864C21.7278 10.2548 22.0468 10.3801 22.3202 10.5624C22.5936 10.7447 22.8329 11.0067 23.038 11.3485C23.2431 11.6903 23.5621 12.1233 23.995 12.6474L25.2255 11.6903C25.4534 11.7815 25.8179 11.9296 26.3192 12.1347C26.8205 12.3397 27.3332 12.5904 27.8573 12.8866C28.3814 13.1828 28.8257 13.4905 29.1903 13.8095C29.5549 14.1285 29.7486 14.4247 29.7714 14.6981C29.7714 15.0399 29.6461 15.3134 29.3954 15.5185C29.1448 15.7235 28.8144 15.8944 28.4042 16.0311C27.994 16.1679 27.5725 16.2704 27.1395 16.3388C26.7066 16.4071 26.2737 16.4983 25.8407 16.6122C25.4078 16.7261 25.0774 16.8401 24.8495 16.954C24.6216 17.0679 24.4849 17.2616 24.4394 17.5351L26.4218 18.1845C25.966 18.5718 25.4761 18.925 24.952 19.244C24.428 19.5631 23.8811 19.8593 23.3114 20.1327L23.4481 20.7138L20.3036 21.9442V22.9013L20.0644 23.0038L20.2353 21.8075L20.0985 21.7733C19.939 21.7733 19.8479 21.8075 19.8251 21.8759C19.8023 21.9442 19.7909 22.024 19.7909 22.1151C19.7909 22.2063 19.8137 22.2974 19.8593 22.3886C19.9048 22.4797 19.9162 22.5481 19.8935 22.5936L19.4491 22.3544L19.5175 22.4911C19.5175 22.5595 19.5517 22.662 19.62 22.7987C19.6884 22.9354 19.7795 23.0608 19.8935 23.1747C20.0074 23.2886 20.0985 23.4026 20.1669 23.5165C20.2353 23.6304 20.2808 23.6874 20.3036 23.6874C20.3036 23.7558 20.258 23.8241 20.1669 23.8925C20.0757 23.9608 19.9618 24.0064 19.8251 24.0292C19.6884 24.052 19.5972 24.0862 19.5517 24.1317C19.5061 24.1773 19.5061 24.1887 19.5517 24.1659C19.8707 24.1659 19.939 24.1887 19.7567 24.2343C19.5744 24.2798 19.2896 24.3938 18.9022 24.5761C18.5149 24.7584 18.1617 25.0204 17.8427 25.3622C17.5237 25.704 17.3414 26.2053 17.2958 26.8661C17.2958 27.2535 17.3072 27.6295 17.33 27.994C17.3528 28.3586 17.3414 28.7346 17.2958 29.122C16.9768 28.2561 16.4983 27.5953 15.8603 27.1395C15.2222 26.6838 14.4475 26.456 13.536 26.456L12.0663 26.5927L12.7841 27.0712C12.3967 27.0256 11.9979 26.98 11.5878 26.9345C11.1776 26.8889 10.7561 26.8775 10.3231 26.9003C9.8902 26.9231 9.50283 27.0142 9.16103 27.1737C8.81924 27.3332 8.47744 27.5725 8.13564 27.8915L7.93056 29.4296C7.93056 30.1588 8.09007 30.7512 8.40908 31.2069C8.72809 31.6627 9.28636 31.9019 10.0839 31.9247C10.7675 31.9247 11.4397 31.8222 12.1005 31.6171C12.7613 31.412 13.4107 31.1728 14.0487 30.8993C13.8436 31.4006 13.6158 31.8791 13.3651 32.3349C13.1145 32.7906 12.9322 33.2919 12.8183 33.8388L13.2626 34.0438C13.8095 33.6793 14.3108 33.6223 14.7665 33.8729C15.2222 34.1236 15.6666 34.4882 16.0995 34.9667C16.5325 35.4452 16.9768 35.9351 17.4325 36.4364C17.8882 36.9377 18.3782 37.3023 18.9022 37.5302L17.7401 38.1454L15.0058 36.6073C15.0285 36.6529 15.0513 36.7554 15.0741 36.9149C15.0969 37.0744 15.0855 37.1086 15.0399 37.0175L13.8095 34.9325C13.0803 34.9097 12.3056 34.7958 11.4853 34.5907C10.6649 34.3856 9.83323 34.1122 8.99013 33.7704C8.14703 33.4286 7.3609 33.0526 6.63174 32.6425C5.90257 32.2323 5.23037 31.7994 4.61513 31.3436L4.37588 35.0009C4.37588 37.7808 4.75185 40.4924 5.50381 43.1356C6.25576 45.7789 7.31533 48.2626 8.68252 50.5868C10.0497 52.911 11.7245 55.0302 13.7069 56.9442C15.6894 58.8583 17.8882 60.4875 20.3036 61.8319C20.1897 61.3534 20.1783 60.8749 20.2694 60.3964C20.3606 59.9179 20.4745 59.4394 20.6112 58.9608C20.7479 58.4823 20.8961 58.0038 21.0556 57.5253C21.2151 57.0468 21.2948 56.5569 21.2948 56.0556C21.2948 55.3264 21.1809 54.563 20.953 53.7655C20.7252 52.968 20.4517 52.1591 20.1327 51.3388C19.8137 50.5185 19.4605 49.7095 19.0731 48.912C18.6858 48.1145 18.3782 47.3625 18.1503 46.6562C17.9224 45.9498 17.7401 45.289 17.6034 44.6737C17.4667 44.0585 17.5351 43.523 17.8085 43.0673L17.2958 42.828C17.4325 42.509 17.6148 42.2014 17.8427 41.9052C18.0705 41.6089 18.3098 41.3127 18.5604 41.0165C18.8111 40.7203 19.0048 40.4013 19.1415 40.0595C19.2782 39.7177 19.358 39.3759 19.3808 39.0341C19.3808 38.8062 19.3352 38.567 19.244 38.3163C19.1529 38.0657 19.0731 37.8264 19.0048 37.5985L19.7226 37.7694C20.1099 36.8808 20.634 36.2769 21.2948 35.9579C21.9556 35.6389 22.7873 35.468 23.7899 35.4452C23.9039 35.4452 24.1431 35.4908 24.5077 35.5819C24.8723 35.6731 25.2597 35.7984 25.6698 35.9579C26.08 36.1174 26.4673 36.2427 26.8319 36.3339C27.1965 36.425 27.47 36.5162 27.6522 36.6073C27.6522 36.7668 27.7434 36.8694 27.9257 36.9149C28.108 36.9605 28.2105 37.0403 28.2333 37.1542L28.1649 37.4276C28.2333 37.4504 28.3928 37.5302 28.6435 37.6669C28.8941 37.8036 29.1675 37.9745 29.4638 38.1796C29.76 38.3847 30.022 38.567 30.2499 38.7265C30.4778 38.886 30.6373 39.0113 30.7284 39.1024C31.1386 39.1024 31.6968 39.2392 32.4032 39.5126C33.1096 39.786 33.8843 40.1278 34.7274 40.538C35.5705 40.9481 36.4022 41.438 37.2226 42.0077C38.0429 42.5774 38.8176 43.147 39.5468 43.7167C40.2759 44.2864 40.8342 44.856 41.2216 45.4257C41.6089 45.9953 41.8368 46.4966 41.9052 46.9296L40.7431 48.1601C40.8342 49.3222 40.7545 50.2108 40.5038 50.8261C40.2532 51.4413 39.8658 51.954 39.3417 52.3642C38.8176 52.7743 38.2138 53.1161 37.5302 53.3895C36.8466 53.663 36.106 54.0504 35.3085 54.5517C35.3085 55.0074 35.1946 55.4973 34.9667 56.0214C34.7388 56.5455 34.454 57.0468 34.1122 57.5253C33.7704 58.0038 33.3603 58.4026 32.8817 58.7216C32.4032 59.0406 31.9247 59.2001 31.4462 59.2001L30.0106 58.1063C30.0562 58.1519 30.0562 58.2317 30.0106 58.3456C29.9651 58.4595 29.9081 58.4823 29.8397 58.414C30.0676 58.8469 30.1246 59.3482 30.0106 59.9179C29.8967 60.4875 29.703 61.0686 29.4296 61.661C29.1561 62.2535 28.8485 62.8117 28.5067 63.3358C28.1649 63.8599 27.8573 64.3043 27.5839 64.6688C28.8144 64.9879 30.0448 65.2271 31.2753 65.3866C32.5058 65.5461 33.7476 65.6259 35.0009 65.6259Z" fill="#18341E"/>
</svg>
