<svg width="50" height="50" viewBox="0 0 50 50" fill="none" xmlns="http://www.w3.org/2000/svg">
<path d="M35.4167 8.33317C34.8641 8.33317 34.3342 8.11368 33.9435 7.72298C33.5528 7.33228 33.3333 6.80237 33.3333 6.24984C33.3333 5.6973 33.5528 5.1674 33.9435 4.7767C34.3342 4.386 34.8641 4.1665 35.4167 4.1665H43.75C44.3025 4.1665 44.8324 4.386 45.2231 4.7767C45.6138 5.1674 45.8333 5.6973 45.8333 6.24984V14.5832C45.8333 15.1357 45.6138 15.6656 45.2231 16.0563C44.8324 16.447 44.3025 16.6665 43.75 16.6665C43.1975 16.6665 42.6675 16.447 42.2768 16.0563C41.8862 15.6656 41.6667 15.1357 41.6667 14.5832V11.279L29.5979 23.3478C29.2072 23.7383 28.6774 23.9577 28.125 23.9577C27.5726 23.9577 27.0428 23.7383 26.6521 23.3478L20.8333 17.529L9.80625 28.5561C9.41333 28.9356 8.88707 29.1456 8.34083 29.1408C7.79459 29.1361 7.27206 28.917 6.88579 28.5307C6.49953 28.1444 6.28043 27.6219 6.27568 27.0757C6.27093 26.5294 6.48092 26.0032 6.86042 25.6103L19.3604 13.1103C19.7511 12.7197 20.2809 12.5003 20.8333 12.5003C21.3858 12.5003 21.9156 12.7197 22.3062 13.1103L28.125 18.929L38.7208 8.33317H35.4167ZM10.4167 37.4998V43.7498C10.4167 44.3024 10.1972 44.8323 9.80647 45.223C9.41577 45.6137 8.88587 45.8332 8.33333 45.8332C7.7808 45.8332 7.25089 45.6137 6.86019 45.223C6.46949 44.8323 6.25 44.3024 6.25 43.7498V37.4998C6.25 36.9473 6.46949 36.4174 6.86019 36.0267C7.25089 35.636 7.7808 35.4165 8.33333 35.4165C8.88587 35.4165 9.41577 35.636 9.80647 36.0267C10.1972 36.4174 10.4167 36.9473 10.4167 37.4998ZM20.8333 29.1665C20.8333 28.614 20.6138 28.0841 20.2231 27.6934C19.8324 27.3027 19.3025 27.0832 18.75 27.0832C18.1975 27.0832 17.6676 27.3027 17.2769 27.6934C16.8862 28.0841 16.6667 28.614 16.6667 29.1665V43.7498C16.6667 44.3024 16.8862 44.8323 17.2769 45.223C17.6676 45.6137 18.1975 45.8332 18.75 45.8332C19.3025 45.8332 19.8324 45.6137 20.2231 45.223C20.6138 44.8323 20.8333 44.3024 20.8333 43.7498V29.1665ZM29.1667 31.2498C29.7192 31.2498 30.2491 31.4693 30.6398 31.86C31.0305 32.2507 31.25 32.7806 31.25 33.3332V43.7498C31.25 44.3024 31.0305 44.8323 30.6398 45.223C30.2491 45.6137 29.7192 45.8332 29.1667 45.8332C28.6141 45.8332 28.0842 45.6137 27.6935 45.223C27.3028 44.8323 27.0833 44.3024 27.0833 43.7498V33.3332C27.0833 32.7806 27.3028 32.2507 27.6935 31.86C28.0842 31.4693 28.6141 31.2498 29.1667 31.2498ZM41.6667 22.9165C41.6667 22.364 41.4472 21.8341 41.0565 21.4434C40.6658 21.0527 40.1359 20.8332 39.5833 20.8332C39.0308 20.8332 38.5009 21.0527 38.1102 21.4434C37.7195 21.8341 37.5 22.364 37.5 22.9165V43.7498C37.5 44.3024 37.7195 44.8323 38.1102 45.223C38.5009 45.6137 39.0308 45.8332 39.5833 45.8332C40.1359 45.8332 40.6658 45.6137 41.0565 45.223C41.4472 44.8323 41.6667 44.3024 41.6667 43.7498V22.9165Z" fill="#529457"/>
</svg>
